<svg id="Camada_1" data-name="Camada 1" xmlns="http://www.w3.org/2000/svg" viewBox="0 0 866.28 348.49"><defs><style>.cls-1,.cls-2{fill:#7226ea;}.cls-2{font-size:198.34px;font-family:BlackOpsOne-Regular, Black Ops One;}.cls-3{letter-spacing:-0.04em;}</style></defs><title>xCopa</title><path class="cls-1" d="M560.05,325.79h0a71.63,71.63,0,0,1-20.59-63.38h0c10-58.5-51.37-103.11-103.9-75.49h0a71.6,71.6,0,0,1-66.65,0h0C316.38,159.3,255,203.91,265,262.41h0a71.57,71.57,0,0,1-20.59,63.38h0c-42.5,41.43-19,113.61,39.69,122.14h0A71.6,71.6,0,0,1,338,487.11h0c26.27,53.22,102.16,53.22,128.43,0h0a71.6,71.6,0,0,1,53.92-39.18h0C579.1,439.4,602.56,367.22,560.05,325.79Zm-128-82.33h66.35l-55,84-33-48.29ZM376.64,429.23h-70.7l59.22-86.52,33.18,50.4Zm57,0L309.72,243.46H376.5L501.09,429.23Z" transform="translate(-222.72 -178.53)"/><text class="cls-2" transform="translate(307.21 267.63)">CO<tspan class="cls-3" x="281.14" y="0">P</tspan><tspan x="413.81" y="0">A</tspan></text></svg>