<svg id="Camada_1" data-name="Camada 1" xmlns="http://www.w3.org/2000/svg" viewBox="0 0 865.41 348.49"><defs><style>.cls-1{fill:#7226ea;}</style></defs><title>logo</title><path class="cls-1" d="M560.05,325.79h0a71.63,71.63,0,0,1-20.59-63.38h0c10-58.5-51.37-103.11-103.9-75.49h0a71.6,71.6,0,0,1-66.65,0h0C316.38,159.3,255,203.91,265,262.41h0a71.57,71.57,0,0,1-20.59,63.38h0c-42.5,41.43-19,113.61,39.69,122.14h0A71.6,71.6,0,0,1,338,487.11h0c26.27,53.22,102.16,53.22,128.43,0h0a71.6,71.6,0,0,1,53.92-39.18h0C579.1,439.4,602.56,367.22,560.05,325.79Zm-128-82.33h66.35l-55,84-33-48.29ZM376.64,429.23h-70.7l59.22-86.52,33.18,50.4Zm57,0L309.72,243.46H376.5L501.09,429.23Z" transform="translate(-222.72 -178.53)"/><path class="cls-1" d="M582.12,446.17h-17L539.31,420.5V343.32l25.77-25.66h17Zm6.78-102.85V317.66h45.61l25.67,25.66v25.86H617.37V343.32Zm0,102.85V420.5h28.47V401.72h42.81V420.5l-25.67,25.67Z" transform="translate(-222.72 -178.53)"/><path class="cls-1" d="M720.61,420h16.07v26.15H703.76L677.7,420.5V343.32l26.06-25.66h32.92v26H720.61Zm39.22-76.31H743.46v-26h33.22l26,25.66V420.5l-26,25.67H743.46V420h16.37Z" transform="translate(-222.72 -178.53)"/><path class="cls-1" d="M822.2,446.17V317.66h42V446.17ZM871,343.32V317.66h48l25.66,25.66v44.06L919,413.14H871V387.38h31.09V343.32Z" transform="translate(-222.72 -178.53)"/><path class="cls-1" d="M986,446.17H944.61l45.9-122.7,19,51Zm53.46-14h-42l8.91-25.47h23.24l-34.38-89h41.74l51.23,128.51h-43.29Z" transform="translate(-222.72 -178.53)"/></svg>